# xmcd CD database file
#
# Track frame offsets:
#	150
#	13812
#	25887
#	39285
#	53265
#	65145
#	77242
#	89345
#	99787
#	112140
#
# Disc length: 1667 seconds
#
# Revision: 1
# Processed by: cddbd v1.5.2PL0 Copyright (c) Steve Scherf et al.
# Submitted via: CDex 1.51
#
DISCID=7506810a
DTITLE=Loretta Lynn - Blue Eyed Kentucky Girl
DYEAR=1993
DGENRE=Country
TTITLE0=Coal Miners Daughter
TTITLE1=Rated "X"
TTITLE2=Blue Eyed Kentucky Girl
TTITLE3=When The Tingle Becomes A Chill
TTITLE4=The Pill
TTITLE5=Somebody Led Me Away
TTITLE6=Another Man Loved Me Last Night
TTITLE7=You're Lookin' At Country
TTITLE8=The Home You're Tearin' Down
TTITLE9=What Kind Of Girl Do You Think I Am
EXTD=YEAR: 1993
EXTT0=
EXTT1=
EXTT2=
EXTT3=
EXTT4=
EXTT5=
EXTT6=
EXTT7=
EXTT8=
EXTT9=
PLAYORDER=
